<svg viewBox="0 0 600 600" xmlns="http://www.w3.org/2000/svg" fill-rule="evenodd" clip-rule="evenodd" stroke-linejoin="round" stroke-miterlimit="1.414"><path d="M189.692 563.901c-24.513-11.536-53.833-39.894-73.059-69.694-32.203-50.468-74.981-212.446-74.981-283.582 0-41.335 10.094-51.429 102.378-106.223 42.778-24.993 61.042-28.358 61.042-11.055.962 41.817 25.955 188.895 40.375 235.037 24.993 81.71 55.755 124.007 89.881 124.007 12.496 0 12.977.48 7.69 14.9-9.132 24.032-57.197 73.058-85.555 86.997-36.048 17.783-47.103 19.706-67.771 9.613zm122.564-34.607c-4.324-4.808-.478-12.019 14.901-31.242 29.8-36.048 34.606-63.445 11.054-57.677-16.342 3.845-40.374-13.939-53.832-40.375-6.729-13.458-12.016-27.877-12.016-32.684 0-10.574 24.513-30.761 54.794-45.661 21.148-10.094 27.396-19.226 17.303-25.475-2.403-1.442-21.629 8.171-41.816 21.63l-37.01 24.032-7.21-12.978c-8.652-16.822-19.706-61.522-19.706-81.229 0-13.458 3.364-16.823 39.893-37.01 46.623-26.435 42.297-29.8-6.729-5.767-19.226 9.132-35.568 16.342-36.048 15.38-4.326-4.326-16.342-74.981-16.342-96.129 0-22.591 1.442-25.955 15.861-35.568 43.258-29.319 158.133-62.484 201.872-58.158 14.419 1.442 15.861 3.364 28.358 39.893 15.861 49.026 15.861 49.988.481 55.755-7.691 2.404-16.823 5.768-20.668 7.691-3.845 1.442-10.575 3.364-14.9 4.326-20.188 4.325-32.684 11.535-30.281 18.264 1.922 5.768 7.21 5.287 32.203-1.922 53.833-15.381 55.275-15.381 62.965-3.846 3.845 6.249 11.535 24.994 17.303 41.336 7.691 24.032 8.652 32.203 4.326 37.491-2.884 3.845-7.21 6.729-9.613 6.729-9.613 0-57.197 25.474-57.197 30.761 0 12.977 24.994 28.358 65.849 40.855 24.993 8.171 42.297 15.861 42.297 19.706 0 3.846-20.187 13.459-49.026 23.552l-49.507 17.303v20.668c0 11.055-4.326 32.684-9.613 47.584-20.187 58.159-59.119 93.246-105.742 96.61-16.339.961-28.354-.48-32.204-3.845zm42.778-112.952c10.094-23.071-17.303-37.01-31.723-15.861-9.613 13.458-1.922 27.877 14.42 27.877 7.689 0 13.457-3.844 17.303-12.016z" fill="#050505" fill-rule="nonzero"/></svg>