<?xml version="1.0" encoding="UTF-8" standalone="no"?><!DOCTYPE svg PUBLIC "-//W3C//DTD SVG 1.1//EN" "http://www.w3.org/Graphics/SVG/1.1/DTD/svg11.dtd"><svg width="100%" height="100%" viewBox="0 0 290 178" version="1.1" xmlns="http://www.w3.org/2000/svg" xmlns:xlink="http://www.w3.org/1999/xlink" xml:space="preserve" xmlns:serif="http://www.serif.com/" style="fill-rule:evenodd;clip-rule:evenodd;stroke-linejoin:round;stroke-miterlimit:1.41421;"><g><path d="M39,175.9c-3.8,-1.5 -9.9,-7.8 -12.5,-12.9c-3,-6 -5.5,-16.4 -5.5,-23l0,-5.3l-4.5,5.7c-2.5,3.2 -4.5,6.1 -4.5,6.5c0,0.3 -1.9,2.6 -4.1,5c-2.8,3 -4.4,4 -5.1,3.3c-2,-2 -3.7,-38.8 -1.9,-40.2c0.4,-0.3 4.4,-4.7 8.9,-9.7l8.2,-9.3l2.4,3.8c3.5,5.6 11.2,12 16.6,13.9l4.7,1.7l-0.4,6c-1,13.5 6.9,19.6 11.4,8.7c0.9,-2.1 1.3,-6.4 1.2,-11.8c-0.3,-11.2 0.8,-12.2 12,-11.5c6,0.3 8.6,0 11.4,-1.3c4.2,-2 5.3,-1.5 12.2,4.9c3.7,3.5 3.8,3.7 3.1,9c-0.3,2.9 -1.2,6.9 -2,8.8c-0.9,1.9 -1.7,4.6 -2,5.9c-0.8,4.3 -2.5,7.9 -3.8,7.9c-0.7,0 -3.7,-1.2 -6.7,-2.5c-6.3,-3 -6.6,-2.8 -7.4,5.4c-0.9,8.4 -4.3,18.5 -8,23.2c-5.7,7.5 -15.9,10.9 -23.7,7.8Z" style="fill:#050505;fill-rule:nonzero;"/><path d="M235.5,166.6c-2.8,-1.3 -6.9,-4.4 -9.1,-6.9l-4,-4.6l-2.8,1.8c-1.5,1 -4.7,4 -7.1,6.7l-4.2,4.9l-4.9,-1.4c-2.7,-0.8 -12.4,-3.9 -13.6,-4.5c-3.9,-2 -3,-3.3 3.4,-5.1c3.5,-0.9 6.9,-2.2 7.6,-2.8c2.6,-2.1 5.2,-8.7 5.2,-13c0,-4.7 -2.4,-12.7 -4,-13.7c-1.3,-0.8 0.6,-6.7 3,-9.5c0.9,-1.1 5.1,-6.8 9.3,-12.6c7,-9.7 16.5,-18.9 19.5,-18.9c0.7,0 5,2.3 9.7,5.1c6,3.6 8.5,5.7 8.5,7c0,3.1 -2.4,8.1 -9,18.8c-3.3,5.5 -6,10.2 -6,10.5c0,0.3 1.1,0.6 2.5,0.6c4.2,0 7,2 10.2,7.1l3,4.9l3.4,-2.3c1.8,-1.2 13.8,-13.1 14.6,-11c0.3,0.7 2.9,3.6 5.9,6.5c4.3,4.1 5.4,5.8 5.4,8.2c-0.1,4.2 -4,9.6 -13.1,17.7c-6.4,5.9 -8.3,7 -12.9,7.9c-8.6,1.6 -15,1.2 -20.5,-1.4Z" style="fill:#050505;fill-rule:nonzero;"/><path d="M87.5,163.3c-2.2,-1.5 -4.7,-3.6 -5.7,-4.8c-2,-2.4 -3,-8.2 -2.2,-12.4c0.6,-2.7 1,-3 4.1,-2.8c3.4,0.2 3.6,0 4.9,-4.2c0.7,-2.5 2,-4.9 2.8,-5.3c0.9,-0.5 1.6,-2.2 1.6,-4.1c0,-1.8 0.7,-6.2 1.6,-9.9c1.6,-6.3 1.9,-6.8 4.8,-7.4c1.8,-0.3 5,-0.4 7.1,-0.2c3.9,0.3 4,0.4 4.9,5.1l0.9,4.7l5.4,0c5.2,0 5.3,0.1 6.9,3.8c0.8,2 1.8,6.1 2.1,9c0.6,5 0.5,5.2 -1.8,5.3c-1.3,0.1 -3,0.1 -3.6,0c-0.7,-0.1 -1.3,0.3 -1.3,0.9c0,0.5 0.6,1 1.3,1c0.6,0 2.7,1.4 4.5,3c5.7,5.2 3.9,7.6 -6.8,9.3c-4.7,0.7 -7,1.5 -7,2.4c0,2.2 -5.8,6.9 -9.9,8.2c-6.1,1.8 -10.3,1.3 -14.6,-1.6Zm11.7,-13.8c0.9,-2.1 0.9,-2.9 -0.5,-4.2c-1.5,-1.6 -1.8,-1.5 -3.6,0.6c-1.6,1.8 -1.8,2.8 -1,4.2c1.4,2.7 3.7,2.4 5.1,-0.6Z" style="fill:#050505;fill-rule:nonzero;"/><path d="M119.4,160.5c-0.9,-1.4 -1.5,-2.7 -1.3,-2.9c0.2,-0.1 3.1,-1.1 6.4,-2.2c5.8,-1.8 6,-2 6.3,-5.6c0.2,-2.8 -0.2,-4 -2,-5.2c-1.7,-1.2 -2,-1.8 -1,-2.8c0.7,-0.7 1.2,-3.1 1.2,-5.4c0,-4 0.1,-4.2 5.3,-6.3c18.7,-7.8 44.1,-9.1 59.9,-3.1c3.3,1.2 6.3,1 7.3,2.9c3.2,6.3 0.2,22.6 -4.7,25.2c-1.3,0.7 -6.7,0.8 -15.6,0.4c-16.9,-0.9 -32.5,0.6 -48.1,4.6c-6.3,1.6 -11.6,2.9 -11.8,2.9c-0.1,0 -1,-1.1 -1.9,-2.5Z" style="fill:#050505;fill-rule:nonzero;"/><path d="M35.8,111.2c-5.1,-2.4 -11.2,-8.3 -15.2,-14.5c-6.7,-10.5 -15.6,-44.2 -15.6,-59c0,-8.6 2.1,-10.7 21.3,-22.1c8.9,-5.2 12.7,-5.9 12.7,-2.3c0.2,8.7 5.4,39.3 8.4,48.9c5.2,17 11.6,25.8 18.7,25.8c2.6,0 2.7,0.1 1.6,3.1c-1.9,5 -11.9,15.2 -17.8,18.1c-7.5,3.7 -9.8,4.1 -14.1,2Z" style="fill:#050505;fill-rule:nonzero;"/><path d="M107.3,108.8c-7.2,-5.1 -7,-16.5 0.4,-26.7c1.7,-2.3 1.7,-2.4 -0.7,-1.5c-1.4,0.5 -4.5,0.9 -7,0.9c-4.4,0 -4.5,-0.1 -5.5,-3.9c-0.8,-3.4 -0.7,-4.1 1.3,-5.6c1.2,-1 5.9,-3.1 10.5,-4.6c4.5,-1.4 8.7,-3.1 9.4,-3.6c2,-1.6 0.4,-3.6 -4.3,-5.4c-4.8,-1.8 -4.9,-2.9 -0.4,-3.9c1.7,-0.4 3,-0.8 3,-1c0,-0.2 -0.7,-3.1 -1.6,-6.4c-1.8,-7.2 -1.3,-9.6 2.5,-11.6c4.5,-2.3 16.1,-4.9 17.1,-3.9c0.6,0.6 2.7,5.2 4.8,10.4l3.8,9.4l4.8,-0.3c5.8,-0.3 7.3,0.8 8.2,6.5c0.9,6.3 -1.1,8.9 -8.1,10.5c-3,0.7 -5.5,1.5 -5.5,1.8c0,0.3 1.9,1.5 4.2,2.5c2.2,1 6.1,3.8 8.5,6.1c3.6,3.5 4.4,4.9 4.1,7.2c-0.3,2.8 -0.3,2.8 -8.4,3.1l-8,0.3l-1.3,4.7c-1.5,5.6 -4.9,10.3 -10.4,14.3c-3.5,2.6 -4.8,2.9 -11.1,2.9c-5.8,0 -7.7,-0.4 -10.3,-2.2Zm14.7,-14.8c2.4,-2.4 2.5,-4.3 0.5,-6c-1.2,-1 -2,-0.9 -4,0.4c-2.7,1.8 -3.2,4.5 -1.3,6.4c1.7,1.7 2.5,1.5 4.8,-0.8Z" style="fill:#050505;fill-rule:nonzero;"/><path d="M61.3,104c-0.9,-1 -0.1,-2.5 3.1,-6.5c6.2,-7.5 7.2,-13.2 2.3,-12c-3.4,0.8 -8.4,-2.9 -11.2,-8.4c-1.4,-2.8 -2.5,-5.8 -2.5,-6.8c0,-2.2 5.1,-6.4 11.4,-9.5c4.4,-2.1 5.7,-4 3.6,-5.3c-0.5,-0.3 -4.5,1.7 -8.7,4.5l-7.7,5l-1.5,-2.7c-1.8,-3.5 -4.1,-12.8 -4.1,-16.9c0,-2.8 0.7,-3.5 8.3,-7.7c9.7,-5.5 8.8,-6.2 -1.4,-1.2c-4,1.9 -7.4,3.4 -7.5,3.2c-0.9,-0.9 -3.4,-15.6 -3.4,-20c0,-4.7 0.3,-5.4 3.3,-7.4c9,-6.1 32.9,-13 42,-12.1c3,0.3 3.3,0.7 5.9,8.3c3.3,10.2 3.3,10.4 0.1,11.6c-1.6,0.5 -3.5,1.2 -4.3,1.6c-0.8,0.3 -2.2,0.7 -3.1,0.9c-4.2,0.9 -6.8,2.4 -6.3,3.8c0.4,1.2 1.5,1.1 6.7,-0.4c11.2,-3.2 11.5,-3.2 13.1,-0.8c0.8,1.3 2.4,5.2 3.6,8.6c1.6,5 1.8,6.7 0.9,7.8c-0.6,0.8 -1.5,1.4 -2,1.4c-2,0 -11.9,5.3 -11.9,6.4c0,2.7 5.2,5.9 13.7,8.5c5.2,1.7 8.8,3.3 8.8,4.1c0,0.8 -4.2,2.8 -10.2,4.9l-10.3,3.6l0,4.3c0,2.3 -0.9,6.8 -2,9.9c-4.2,12.1 -12.3,19.4 -22,20.1c-3.4,0.2 -5.9,-0.1 -6.7,-0.8Zm8.9,-23.5c2.1,-4.8 -3.6,-7.7 -6.6,-3.3c-2,2.8 -0.4,5.8 3,5.8c1.6,0 2.8,-0.8 3.6,-2.5Z" style="fill:#050505;fill-rule:nonzero;"/><path d="M254.8,103.5c-0.3,-0.3 -0.4,-2.3 -0.1,-4.3c0.5,-3.5 0.3,-3.8 -3.9,-5.9c-2.3,-1.2 -6.9,-3.9 -10,-5.9c-4.2,-2.7 -6.4,-3.5 -8.2,-3c-1.3,0.3 -6,3.9 -10.3,7.9c-7.1,6.7 -8.3,7.5 -13.1,8.1c-6.7,0.9 -9.2,-0.4 -9.2,-4.7c0,-3 0.4,-3.4 4.9,-5.1c2.6,-0.9 5.8,-2.6 6.9,-3.6c2.6,-2.4 3.6,-9.9 2.7,-19.6c-0.6,-6.8 -0.9,-7.5 -3.6,-9.1c-1.6,-1 -2.9,-2 -2.9,-2.3c0,-3.5 12,-30.9 14,-32c5,-2.7 39,-3.6 39,-1.1c0,0.5 -1.5,2.8 -3.3,5.2c-7.9,10.3 -18.8,33.6 -19.4,35c-1,2.4 -0.9,2.5 1.7,2.1c3.7,-0.5 8.2,1.9 12,6.8c1.7,2.2 3.9,4 4.9,4c1.9,0 9.2,-7.1 10.4,-8.3c3.4,-3.4 6.5,-3.1 11.6,1.3c2.5,2.2 6,5.2 7.8,6.7c2.7,2.3 3.1,3.3 2.6,5.8c-0.3,1.7 -1.5,4.2 -2.7,5.7c-3,3.9 -12.2,10.7 -18.1,13.4c-5.3,2.3 -12.6,3.9 -13.7,2.9Z" style="fill:#050505;fill-rule:nonzero;"/><path d="M160.4,95.2c-1.7,-1.2 -2.4,-4.1 -1.4,-6.5c0.5,-1.2 1.1,-3.8 1.5,-5.8c0.4,-2.5 1.3,-4 3.1,-5c2.5,-1.3 2.6,-1.7 2.1,-6.9l-0.6,-5.6l8.2,-2.7c15.9,-5.3 32.6,-6.2 36.8,-2c2.5,2.4 3.5,12 2.2,19.3c-1.2,6.1 -3.8,7.4 -20.8,9.9c-7.8,1.2 -17.2,3 -21,4.1c-7.7,2.2 -8.5,2.3 -10.1,1.2Z" style="fill:#050505;fill-rule:nonzero;"/><path d="M156.3,79.1c-0.6,-1 -3.5,-3.4 -6.3,-5.2l-5.1,-3.3l4.3,-2c2.5,-1.3 4.9,-3.3 5.8,-5.1c0.8,-1.6 1.7,-3.2 1.8,-3.5c0.8,-1.1 7,7.3 7.6,10.2c0.5,2.5 0,3.7 -2.6,6.8c-3.9,4.5 -4,4.5 -5.5,2.1Z" style="fill:#050505;fill-rule:nonzero;"/></g></svg>